<?xml version="1.0" standalone="no"?>
<!DOCTYPE svg PUBLIC "-//W3C//DTD SVG 1.1//EN" "http://www.w3.org/Graphics/SVG/1.1/DTD/svg11.dtd" >
<svg xmlns="http://www.w3.org/2000/svg" xmlns:xlink="http://www.w3.org/1999/xlink" version="1.1">
<metadata></metadata>
<defs>
<font id="oranda_btbold" horiz-adv-x="991" >
<font-face units-per-em="2048" ascent="1638" descent="-410" />
<missing-glyph horiz-adv-x="496" />
<glyph horiz-adv-x="0" />
<glyph unicode="&#xd;" horiz-adv-x="496" />
<glyph unicode=" "  horiz-adv-x="496" />
<glyph unicode="&#x09;" horiz-adv-x="496" />
<glyph unicode="&#xa0;" horiz-adv-x="496" />
<glyph unicode="!" horiz-adv-x="555" d="M186 289l-61 773q-3 32 -4.5 52.5t-1.5 24.5q0 62 40 94.5t117 32.5q76 0 117 -32t41 -91q0 -2 -1.5 -22t-4.5 -58l-59 -774h-183zM276 -25q-76 0 -115.5 32.5t-39.5 94.5t39.5 94.5t115.5 32.5q78 0 118 -32t40 -95q0 -62 -40 -94.5t-118 -32.5z" />
<glyph unicode="&#x22;" horiz-adv-x="707" d="M543 852h-41l-80 461q-2 12 -3 21t-1 16q0 53 28 83.5t76 30.5q49 0 77 -29.5t28 -80.5q0 -6 -1 -15t-3 -26zM203 852h-41l-80 461q-1 7 -1.5 14.5t-0.5 22.5q0 52 28 83t74 31q48 0 75.5 -29t27.5 -81q0 -16 -0.5 -24.5t-1.5 -16.5z" />
<glyph unicode="#" horiz-adv-x="1575" d="M705 852l-91 -252h265l88 252h-262zM711 1464h215l-148 -415h254l150 415h213l-148 -415h283l-74 -199h-278l-88 -248h292l-71 -196h-291l-148 -416h-215l148 416h-254l-150 -416h-215l148 416h-289l74 196h287l88 248h-304l74 199h299z" />
<glyph unicode="$" d="M86 59v260h223l68 -174q14 -1 27.5 -1.5t35.5 -0.5q95 0 144 38.5t49 111.5q0 61 -35.5 106t-181.5 133q-14 9 -41 24q-264 156 -264 355q0 142 82.5 229.5t242.5 114.5v168h119v-161q84 -5 160 -23t149 -49v-252h-225l-66 166q-7 1 -15 1.5t-23 0.5q-86 0 -134.5 -38.5 t-48.5 -104.5q0 -55 34 -96.5t151 -108.5q234 -136 298 -219t64 -197q0 -149 -92 -244t-252 -110v-170h-119v163q-92 2 -179.5 21.5t-170.5 56.5z" />
<glyph unicode="%" horiz-adv-x="1577" d="M1260 1196l-820 -1225l-118 84l817 1225zM1227 647q-59 0 -85 -61t-26 -203q0 -176 25 -241.5t86 -65.5q60 0 85 62.5t25 223.5q0 162 -24.5 223.5t-85.5 61.5zM352 1165q-59 0 -84.5 -61t-25.5 -203q0 -176 24.5 -241.5t85.5 -65.5t86 61.5t25 223.5q0 161 -25 223.5 t-86 62.5zM1534 381q0 -192 -84 -299t-236 -107q-139 0 -214.5 96t-75.5 273q0 193 82.5 299.5t232.5 106.5q139 0 217 -97t78 -272zM657 897q0 -193 -83 -299t-234 -106q-141 0 -217 95.5t-76 272.5q0 193 83.5 299.5t234.5 106.5q139 0 215.5 -97t76.5 -272z" />
<glyph unicode="&#x26;" horiz-adv-x="1307" d="M539 756q62 42 92.5 93.5t30.5 115.5q0 68 -41.5 107.5t-112.5 39.5q-59 0 -98 -34.5t-39 -86.5q0 -32 18 -67.5t51 -69.5zM766 170l-379 379q-32 -34 -47.5 -75t-15.5 -93q0 -111 77 -177.5t207 -66.5q47 0 86 8t72 25zM885 53q-77 -39 -167 -58.5t-194 -19.5 q-212 0 -339.5 95t-127.5 249q0 105 64 188t180 128l-61 55q-62 57 -89.5 116t-27.5 132q0 149 107 238.5t286 89.5q181 0 283 -80.5t102 -220.5q0 -113 -69.5 -188t-202.5 -105l342 -342q26 51 38.5 96t12.5 90q0 21 -0.5 32.5t-1.5 20.5h-119v152h406v-152h-93v86v-137 q0 -83 -34 -163.5t-95 -141.5l58 -57l137 -37v-119h-340z" />
<glyph unicode="'" horiz-adv-x="365" d="M203 852h-41l-80 461q-2 12 -3 21t-1 16q0 53 28 83.5t76 30.5t75.5 -29t27.5 -81q0 -16 -0.5 -24.5t-1.5 -16.5z" />
<glyph unicode="(" horiz-adv-x="582" d="M518 -373l-147 -43q-128 196 -192 420.5t-64 476.5t64 477.5t192 421.5l147 -43q-69 -197 -101 -396t-32 -466q0 -258 32 -455.5t101 -392.5z" />
<glyph unicode=")" horiz-adv-x="582" d="M66 -373q67 196 99 393t32 455q0 275 -31.5 472t-99.5 390l147 43q127 -195 190.5 -420t63.5 -479q0 -253 -63.5 -478t-190.5 -419z" />
<glyph unicode="*" horiz-adv-x="659" d="M315 1065l-198 -180l-74 127l254 82l-258 73l74 136l198 -179l-55 256h154l-62 -256l195 181l78 -134l-252 -77l252 -76l-76 -131l-197 178l60 -260h-152z" />
<glyph unicode="+" horiz-adv-x="1706" d="M752 1221h202v-510h498v-199h-498v-512h-202v512h-498v199h498v510z" />
<glyph unicode="," horiz-adv-x="473" d="M203 -20q-65 6 -97 39.5t-32 95.5q0 68 39.5 103.5t115.5 35.5q80 0 120 -47t40 -139q0 -100 -55 -180.5t-156 -129.5l-67 109q42 18 67 46t25 58v9z" />
<glyph unicode="-" horiz-adv-x="410" d="M25 410v194h362v-194h-362z" />
<glyph unicode="." horiz-adv-x="473" d="M238 -23q-78 0 -118 38.5t-40 111.5t40 111t118 38q76 0 115.5 -37.5t39.5 -111.5t-39.5 -112t-115.5 -38z" />
<glyph unicode="/" horiz-adv-x="426" d="M8 -422l205 1802h205l-205 -1802h-205z" />
<glyph unicode="0" d="M496 133q87 0 124 109.5t37 378.5q0 268 -37 377.5t-124 109.5q-89 0 -126.5 -109t-37.5 -378t37.5 -378.5t126.5 -109.5zM938 653q0 -323 -120.5 -500.5t-340.5 -177.5q-204 0 -315 160.5t-111 456.5q0 322 121 498t342 176q202 0 313 -159.5t111 -453.5z" />
<glyph unicode="1" d="M248 0v119l151 37v854q-53 -21 -123 -32.5t-163 -14.5v145q87 16 174.5 49.5t177.5 83.5h201v-1085l151 -37v-119h-569z" />
<glyph unicode="2" d="M37 0v16q-2 0 -2 31q0 90 41 169t160 198q54 55 150 146q249 236 249 355q0 91 -59.5 141t-165.5 50q-22 0 -34.5 -0.5t-22.5 -1.5l-64 -160h-221v225q114 50 222 74.5t212 24.5q192 0 301.5 -90.5t109.5 -247.5q0 -205 -333 -466l-16 -13q-25 -20 -73 -55 q-152 -112 -196 -191h377l51 133h192v-338h-878z" />
<glyph unicode="3" d="M51 59v172q101 -25 180.5 -37t145.5 -12q130 0 195 47.5t65 143.5q0 112 -57 162.5t-185 50.5q-20 0 -30.5 -0.5t-20.5 -1.5v155h21q112 0 170.5 50.5t58.5 148.5q0 82 -51.5 127t-145.5 45h-16l-66 -166h-221v227q120 49 224.5 73t197.5 24q169 0 261.5 -78.5 t92.5 -222.5q0 -124 -68.5 -199t-203.5 -98q144 -12 224.5 -98t80.5 -228q0 -165 -122.5 -267t-323.5 -102q-80 0 -179 20.5t-227 63.5z" />
<glyph unicode="4" d="M559 532v453l-338 -453h338zM436 0v119l123 37v186h-547v199l547 700h246v-709h164v-190h-164v-186l123 -37v-119h-492z" />
<glyph unicode="5" d="M123 590v651h756v-223h-572v-240q48 17 91 25t83 8q211 0 322.5 -103t111.5 -296q0 -191 -129 -314t-331 -123q-77 0 -167 22t-202 69v165q88 -23 161.5 -35t133.5 -12q121 0 188.5 56.5t67.5 156.5q0 110 -60 163.5t-184 53.5q-42 0 -171 -14q-64 -7 -99 -10z" />
<glyph unicode="6" d="M328 571v-65q0 -197 41.5 -282t136.5 -85q76 0 120 60t44 166q0 118 -45.5 176.5t-137.5 58.5q-33 0 -73 -7t-86 -22zM338 701q72 44 133 63.5t125 19.5q150 0 250 -108t100 -273q0 -193 -121.5 -310.5t-318.5 -117.5q-221 0 -337 148t-116 430q0 331 156 523t424 192 q60 0 126 -12t148 -37v-164q-55 12 -103 18t-89 6q-163 0 -266 -103t-111 -275z" />
<glyph unicode="7" d="M285 0q-3 35 -4.5 59.5t-1.5 38.5q0 148 42.5 272t137.5 251q43 58 119 154q151 191 151 247v8h-373l-61 -153h-203v364h850q1 -18 2.5 -39t1.5 -24q0 -79 -9 -128t-30 -92q-32 -69 -127 -219q-27 -41 -41 -63q-104 -164 -139 -269t-35 -219q0 -34 2 -74.5t6 -113.5h-288 z" />
<glyph unicode="8" d="M428 555q-68 -62 -98.5 -119t-30.5 -123q0 -83 50.5 -130.5t139.5 -47.5q83 0 134 47.5t51 122.5q0 72 -51 126t-195 124zM559 766q44 52 66 99t22 89q0 76 -40.5 118t-112.5 42q-69 0 -111.5 -36t-42.5 -93q0 -63 39.5 -106.5t179.5 -112.5zM313 625 q-114 60 -169.5 136.5t-55.5 174.5q0 150 115 240t311 90q177 0 276 -77.5t99 -213.5q0 -100 -56.5 -167.5t-168.5 -100.5q155 -72 222.5 -156.5t67.5 -204.5q0 -169 -129 -270t-350 -101q-207 0 -324.5 86t-117.5 236q0 114 70.5 196.5t209.5 131.5z" />
<glyph unicode="9" d="M666 672v59q0 203 -41 288t-136 85q-73 0 -119 -62.5t-46 -167.5q0 -118 46.5 -176.5t141.5 -58.5q25 0 62 8t92 25zM657 543q-71 -45 -132 -65.5t-122 -20.5q-155 0 -255.5 107.5t-100.5 275.5q0 191 121.5 308.5t318.5 117.5q221 0 337 -147.5t116 -428.5 q0 -332 -156 -523.5t-424 -191.5q-59 0 -126 12t-148 38v161q55 -12 103.5 -18t89.5 -6q166 0 266 100.5t112 280.5z" />
<glyph unicode=":" horiz-adv-x="522" d="M260 602q-77 0 -117.5 38t-40.5 112q0 73 40.5 111t117.5 38t116.5 -38t39.5 -111q0 -74 -39.5 -112t-116.5 -38zM260 -23q-77 0 -117.5 38.5t-40.5 111.5t40.5 111t117.5 38t116.5 -37.5t39.5 -111.5t-39.5 -112t-116.5 -38z" />
<glyph unicode=";" horiz-adv-x="522" d="M260 602q-77 0 -117.5 38t-40.5 112q0 73 40.5 111t117.5 38t116.5 -38t39.5 -111q0 -74 -39.5 -112t-116.5 -38zM227 -20q-65 6 -98 40t-33 95q0 67 40.5 103t117.5 36q79 0 119.5 -47t40.5 -139q0 -100 -55 -180.5t-156 -129.5l-68 109q43 18 67.5 46t24.5 58v9z" />
<glyph unicode="&#x3c;" horiz-adv-x="1706" d="M1442 1194v-219l-893 -365l893 -364v-219l-1178 485v199z" />
<glyph unicode="=" horiz-adv-x="1706" d="M254 496h1198v-199h-1198v199zM254 926h1198v-199h-1198v199z" />
<glyph unicode="&#x3e;" horiz-adv-x="1706" d="M264 1194l1178 -483v-199l-1178 -485v219l895 364l-895 365v219z" />
<glyph unicode="?" horiz-adv-x="967" d="M354 289v84q0 91 87 205q20 27 30 40q16 23 47 63q113 148 113 234q0 94 -59 142.5t-173 48.5q-1 0 -7 -1q-17 -1 -34 -1l-69 -160h-223v227q123 48 231 71.5t205 23.5q187 0 297 -92t110 -246q0 -152 -239 -372l-17 -15q-14 -14 -39 -35q-77 -67 -77 -141v-76h-183z M444 -25q-76 0 -115.5 32.5t-39.5 94.5t39.5 94.5t115.5 32.5q78 0 118 -32t40 -95q0 -62 -40 -94.5t-118 -32.5z" />
<glyph unicode="@" horiz-adv-x="2019" d="M1176 319q-62 -100 -134.5 -148t-160.5 -48q-142 0 -222.5 91t-80.5 251q0 114 50 221.5t144 196.5q69 64 148 97.5t161 33.5q96 0 150.5 -45t71.5 -138l49 164h190l-174 -618l-2 -7q-14 -58 -14 -87q0 -47 20.5 -74t54.5 -27q33 0 85 25t98 63q103 88 158 217t55 285 q0 275 -188.5 446t-489.5 171q-138 0 -262 -38t-228 -112q-173 -121 -266.5 -308.5t-93.5 -416.5q0 -335 210.5 -532t565.5 -197q166 0 319.5 50.5t307.5 156.5l39 -51q-151 -113 -318 -169.5t-348 -56.5q-187 0 -347.5 46t-277.5 133q-151 112 -232 277.5t-81 363.5 q0 155 52 298.5t153 264.5q145 174 346.5 267t435.5 93q349 0 558.5 -189t209.5 -503q0 -161 -59 -299.5t-170 -239.5q-59 -53 -126.5 -80.5t-137.5 -27.5q-98 0 -155 52t-64 148zM1118 948q-62 0 -112.5 -44.5t-100.5 -143.5q-57 -114 -87 -215t-30 -183q0 -79 34.5 -125.5 t92.5 -46.5q64 0 124.5 62t115.5 182q40 92 63 185.5t23 162.5q0 80 -32 123t-91 43z" />
<glyph unicode="A" horiz-adv-x="1212" d="M436 592h281l-139 508zM0 0v119l104 37l349 1085h335l320 -1085l104 -37v-119h-503v119l122 37l-75 290h-361l-80 -290l125 -37v-119h-440z" />
<glyph unicode="B" horiz-adv-x="1067" d="M424 711h49q108 0 160.5 49.5t52.5 150.5q0 93 -47.5 139t-142.5 46h-72v-385zM424 147h74q120 0 176.5 54t56.5 168q0 102 -55.5 149t-177.5 47h-74v-418zM561 1241q216 0 310 -71.5t94 -231.5q0 -118 -79 -199.5t-208 -93.5q155 -6 244.5 -89.5t89.5 -221.5 q0 -89 -44.5 -163.5t-121.5 -117.5q-51 -28 -115.5 -40.5t-216.5 -12.5h-483v119l123 37v929l-123 39v117h530z" />
<glyph unicode="C" horiz-adv-x="1049" d="M1020 43q-90 -34 -176.5 -51t-171.5 -17q-290 0 -460.5 169.5t-170.5 457.5q0 298 182 482t475 184q85 0 163.5 -18t158.5 -56v-250h-219l-62 156q-189 0 -299 -126.5t-110 -342.5q0 -223 111.5 -337t328.5 -114q55 0 116 5.5t134 17.5v-160z" />
<glyph unicode="D" horiz-adv-x="1260" d="M424 156h106q202 0 298 114.5t96 354.5q0 236 -97.5 348t-302.5 112h-100v-929zM31 0v119l123 37v929l-123 39v117h512q177 0 265 -19.5t161 -64.5q121 -75 185.5 -210.5t64.5 -313.5q0 -302 -176.5 -467.5t-499.5 -165.5h-512z" />
<glyph unicode="E" horiz-adv-x="1014" d="M31 0v119l123 37v929l-123 39v117h923v-297h-206l-70 152h-254v-383h209l51 125h174v-396h-174l-51 123h-209v-418h272l72 170h209v-317h-946z" />
<glyph unicode="F" horiz-adv-x="973" d="M31 0v119l123 37v929l-123 39v117h923v-297h-206l-70 152h-254v-383h209l51 125h174v-396h-174l-51 123h-209v-418l154 -28v-119h-547z" />
<glyph unicode="G" horiz-adv-x="1219" d="M823 418l-125 37v118h527v-118l-125 -37v-377q-94 -33 -189.5 -49.5t-193.5 -16.5q-314 0 -496 166.5t-182 454.5q0 305 192.5 488.5t513.5 183.5q94 0 185 -18t186 -56v-250h-227l-66 156h-30q-219 0 -342 -124t-123 -345q0 -223 117 -346t329 -123q20 0 30.5 0.5 t18.5 1.5v254z" />
<glyph unicode="H" horiz-adv-x="1294" d="M31 0v119l123 37v929l-123 39v117h516v-117l-123 -39v-356h446v356l-122 39v117h516v-117l-123 -39v-929l123 -37v-119h-516v119l122 37v399h-446v-399l123 -37v-119h-516z" />
<glyph unicode="I" horiz-adv-x="578" d="M547 1241v-117l-123 -39v-929l123 -37v-119h-516v119l123 37v929l-123 39v117h516z" />
<glyph unicode="J" horiz-adv-x="588" d="M176 1085l-125 39v117h518v-117l-123 -39v-1103q0 -224 -78 -314t-262 -90q-83 0 -149 10t-109 29v256h203l45 -155q46 5 63 33.5t17 142.5v1191z" />
<glyph unicode="K" horiz-adv-x="1200" d="M856 0l-422 629l352 456l-122 39v117h495v-117l-123 -39l-331 -397l370 -532l125 -37v-119h-344zM31 0v119l123 37v929l-123 39v117h516v-117l-123 -39v-929l123 -37v-119h-516z" />
<glyph unicode="L" horiz-adv-x="950" d="M31 0v119l123 37v929l-123 39v117h516v-117l-123 -39v-929h238l67 161h211v-317h-909z" />
<glyph unicode="M" horiz-adv-x="1552" d="M31 0v119l123 37v929l-123 39v117h479l276 -846l267 846h469v-117l-123 -39v-929l123 -37v-119h-508v119l125 37v872l-340 -1028h-119l-346 1042v-886l123 -37v-119h-426z" />
<glyph unicode="N" horiz-adv-x="1239" d="M31 0v119l123 37v929l-123 39v117h405l486 -870v714l-123 39v117h426v-117l-123 -39v-1085h-240l-528 946v-790l123 -37v-119h-426z" />
<glyph unicode="O" horiz-adv-x="1233" d="M616 137q144 0 215.5 121t71.5 363q0 237 -73 360t-216 123q-139 0 -211.5 -124t-72.5 -359q0 -240 72 -362t214 -122zM616 -25q-269 0 -423 164t-154 451q0 309 162.5 492.5t433.5 183.5q255 0 406 -166t151 -447q0 -310 -156.5 -494t-419.5 -184z" />
<glyph unicode="P" horiz-adv-x="995" d="M424 649h82q92 0 146.5 62t54.5 168q0 103 -53.5 160t-151.5 57h-78v-447zM31 0v119l123 37v929l-123 39v117h495q122 0 182 -10.5t107 -34.5q83 -42 126.5 -119.5t43.5 -181.5q0 -195 -114.5 -294t-340.5 -99h-106v-346l158 -37v-119h-551z" />
<glyph unicode="Q" horiz-adv-x="1233" d="M735 0q91 -148 162 -195t193 -47q31 0 62.5 3t64.5 10v-148q-93 -24 -166 -35.5t-131 -11.5q-167 0 -260.5 80.5t-192.5 333.5q-197 31 -312.5 193t-115.5 411q0 306 162.5 489t433.5 183q253 0 405 -166t152 -447q0 -269 -120 -441t-337 -212zM616 137q144 0 215.5 121 t71.5 363q0 237 -73 360t-216 123q-139 0 -211.5 -124t-72.5 -359q0 -240 72 -362t214 -122z" />
<glyph unicode="R" horiz-adv-x="1118" d="M424 705h47q117 0 167 45.5t50 148.5t-49.5 150t-157.5 47h-57v-391zM31 0v119l123 37v929l-123 39v117h536q207 0 303.5 -75.5t96.5 -235.5q0 -145 -86 -231.5t-232 -86.5q66 -9 104.5 -36t84.5 -109l125 -234q31 -58 66 -80.5t99 -33.5v-119h-217q-133 0 -193 118 q-13 25 -20 38l-186 360q-11 21 -25 31t-34 10h-29v-401l123 -37v-119h-516z" />
<glyph unicode="S" horiz-adv-x="887" d="M41 55v262h221l70 -176q14 -1 27.5 -1.5t33.5 -0.5q96 0 144.5 38.5t48.5 113.5q0 62 -37 108.5t-179 131.5q-12 7 -35 21q-272 164 -272 363q0 165 112 260t306 95q85 0 169 -18.5t167 -55.5v-252h-223l-66 166q-7 1 -15 1.5t-24 0.5q-85 0 -133.5 -39t-48.5 -106 q0 -57 35.5 -100t146.5 -107q241 -141 303 -222.5t62 -195.5q0 -172 -115 -269.5t-319 -97.5q-103 0 -196.5 20t-182.5 60z" />
<glyph unicode="T" horiz-adv-x="1075" d="M252 0v119l151 37v940h-133l-65 -152h-201v297h1067v-297h-199l-65 152h-133v-940l151 -37v-119h-573z" />
<glyph unicode="U" horiz-adv-x="1239" d="M127 1085l-123 39v117h518v-117l-125 -39v-639q0 -162 58 -232.5t188 -70.5q128 0 182 64.5t54 222.5v655l-123 39v117h473v-117l-123 -39v-624q0 -145 -16 -212t-54 -114q-64 -79 -169 -119.5t-251 -40.5q-264 0 -376.5 104.5t-112.5 356.5v649z" />
<glyph unicode="V" horiz-adv-x="1231" d="M449 0l-340 1085l-103 39v117h506v-117l-125 -39l258 -886l254 886l-123 39v117h445v-117l-105 -39l-360 -1085h-307z" />
<glyph unicode="W" horiz-adv-x="1749" d="M397 0l-278 1085l-105 39v117h496v-117l-125 -39l203 -847l211 1003h239l207 -999l195 843l-125 39v117h440v-117l-104 -39l-285 -1085h-299l-186 887l-187 -887h-297z" />
<glyph unicode="X" horiz-adv-x="1190" d="M10 0v119l105 37l344 454l-322 475l-104 39v117h516v-117l-105 -39l174 -260l183 260l-105 39v117h430v-117l-104 -39l-305 -401l358 -528l103 -37v-119h-514v119l104 37l-211 305l-207 -305l105 -37v-119h-445z" />
<glyph unicode="Y" horiz-adv-x="1139" d="M295 0v119l151 37v354l-331 575l-105 39v117h510v-117l-104 -39l200 -389l199 389l-102 39v117h434v-117l-105 -39l-325 -544v-385l151 -37v-119h-573z" />
<glyph unicode="Z" horiz-adv-x="1006" d="M20 0v184l660 901h-334l-65 -143h-222v299h918v-172l-668 -913h379l66 161h223v-317h-957z" />
<glyph unicode="[" horiz-adv-x="494" d="M121 -422v1802h354v-139h-123v-1526h123v-137h-354z" />
<glyph unicode="\" horiz-adv-x="426" d="M418 -422h-205l-205 1802h205z" />
<glyph unicode="]" horiz-adv-x="494" d="M373 1380v-1802h-355v137h121v1526h-121v139h355z" />
<glyph unicode="^" horiz-adv-x="2048" d="M905 1462h236l491 -565h-112l-498 373l-498 -373h-112z" />
<glyph unicode="_" horiz-adv-x="1024" d="M0 -279h1024v-204h-1024v204z" />
<glyph unicode="`" horiz-adv-x="1024" d="M596 1090l-270 266l252 61l190 -280z" />
<glyph unicode="a" d="M602 179v281q-158 -6 -218 -41t-60 -116q0 -68 40 -103.5t117 -35.5q27 0 56.5 3.5t64.5 11.5zM602 -25v93q-53 -45 -118.5 -69t-133.5 -24q-130 0 -209.5 86t-79.5 228q0 160 104 235.5t322 75.5q34 0 103 -3q8 -1 12 -1v78q0 102 -28 139t-97 37q-8 0 -20.5 -1.5 t-32.5 -4.5l-45 -119h-246v162q102 54 197 81t182 27q184 0 265 -67t81 -221v-539l123 -27v-116z" />
<glyph unicode="b" horiz-adv-x="1079" d="M389 160q4 -1 12 -1q44 -3 62 -3q134 0 205 82t71 237q0 158 -63 237t-191 79q-24 0 -80 -7q-10 -1 -16 -2v-622zM133 72v1147l-123 22v119l379 43v-498q61 46 119.5 68t120.5 22q173 0 274 -120.5t101 -327.5q0 -270 -128.5 -421t-357.5 -151q-91 0 -186 24t-199 73z " />
<glyph unicode="c" horiz-adv-x="918" d="M848 51q-93 -38 -173.5 -57t-152.5 -19q-223 0 -334.5 122t-111.5 366q0 245 131.5 388.5t355.5 143.5q70 0 140 -15t145 -46v-209h-246l-39 104q-107 -12 -165 -96.5t-58 -228.5q0 -163 81 -242.5t247 -79.5q44 0 88.5 5t91.5 16v-152z" />
<glyph unicode="d" horiz-adv-x="1081" d="M688 190v623q-14 1 -31 1.5t-45 0.5q-133 0 -204.5 -82t-71.5 -237q0 -157 63.5 -235.5t192.5 -78.5q20 0 76 6q14 2 20 2zM688 1219l-125 22v119l381 43v-1235l123 -27v-116l-377 -50v91q-60 -47 -118.5 -69t-120.5 -22q-173 0 -274 121.5t-101 329.5q0 263 125.5 416 t339.5 153q34 0 71 -4t76 -12v240z" />
<glyph unicode="e" horiz-adv-x="979" d="M340 606l305 31v16q0 91 -34.5 137t-102.5 46q-81 0 -124.5 -54.5t-43.5 -154.5v-21zM872 51q-96 -38 -182.5 -57t-167.5 -19q-223 0 -334.5 121.5t-111.5 364.5q0 250 117 392t321 142q198 0 297.5 -115.5t99.5 -344.5q0 -28 -0.5 -42.5t-1.5 -25.5h-567 q6 -150 83.5 -217.5t244.5 -67.5q49 0 99 4.5t103 14.5v-150z" />
<glyph unicode="f" horiz-adv-x="645" d="M33 0v119l123 37v663h-123v154h123v76q0 175 98 264.5t291 89.5q73 0 147.5 -14.5t155.5 -45.5v-186h-246l-39 105q-81 -8 -116 -46t-35 -116v-127h211v-154h-211v-663l151 -37v-119h-530z" />
<glyph unicode="g" horiz-adv-x="1057" d="M287 -29q-25 -31 -36 -56t-11 -48q0 -67 64 -101t190 -34q128 0 207 46t79 118q0 40 -30 57.5t-105 17.5h-358zM485 461q69 0 108.5 42t39.5 115q0 115 -38.5 176.5t-109.5 61.5q-72 0 -111.5 -43.5t-39.5 -124.5q0 -105 41 -166t110 -61zM305 352q-105 26 -161 101 t-56 188q0 155 108 254.5t277 99.5q93 0 164.5 -21t128.5 -65q42 41 89.5 59.5t107.5 18.5q27 0 85 -7q5 -1 7 -1v-193h-203q15 -37 23 -72.5t8 -70.5q0 -146 -107 -235t-282 -89q-32 0 -69 7q-5 1 -7 2q-9 -37 -12 -52.5t-3 -25.5q0 -32 24.5 -44.5t109.5 -12.5h219 q134 0 197 -56.5t63 -175.5q0 -163 -156 -273t-399 -110q-204 0 -327.5 67.5t-123.5 176.5q0 63 43.5 112t139.5 93q-27 27 -38.5 53.5t-11.5 58.5q0 48 36.5 96.5t125.5 116.5z" />
<glyph unicode="h" horiz-adv-x="1090" d="M29 0v119l123 37v1063l-123 22v119l379 43v-500q61 42 131 65t137 23q151 0 216.5 -78.5t65.5 -263.5v-493l123 -37v-119h-503v119l124 37v446q0 98 -44.5 141t-147.5 43q-22 0 -84 -6q-11 -1 -18 -2v-622l122 -37v-119h-501z" />
<glyph unicode="i" horiz-adv-x="565" d="M301 1130q-78 0 -119 32.5t-41 92.5q0 61 41 93t119 32t119 -32t41 -93q0 -60 -41 -92.5t-119 -32.5zM420 156l123 -37v-119h-502v119l123 37v649l-123 24v119l379 47v-839z" />
<glyph unicode="j" horiz-adv-x="555" d="M301 1130q-78 0 -119 32.5t-41 92.5q0 61 41 93t119 32t119 -32t41 -93q0 -60 -41 -92.5t-119 -32.5zM164 805l-123 24v119l379 47v-1030q0 -127 -12 -179.5t-39 -90.5q-41 -57 -111 -87t-162 -30q-67 0 -126.5 11t-119.5 34v213h211l49 -118q31 1 42.5 15t11.5 68v13 v991z" />
<glyph unicode="k" horiz-adv-x="1049" d="M152 1219l-123 22v119l379 43v-1247l122 -37v-119h-501v119l123 37v1063zM424 504l235 311l-102 39v119h477v-119l-123 -39l-229 -252l250 -407l123 -37v-119h-328z" />
<glyph unicode="l" horiz-adv-x="555" d="M152 1219l-123 22v119l379 43v-1247l122 -37v-119h-501v119l123 37v1063z" />
<glyph unicode="m" horiz-adv-x="1622" d="M903 899q69 46 148.5 69t165.5 23q142 0 207 -80.5t65 -261.5v-493l123 -37v-119h-496v119l117 37v446q0 98 -44.5 141t-146.5 43q-27 0 -85 -7l-7 -1v-622l119 -37v-119h-491v119l116 37v446q0 99 -43.5 141.5t-144.5 42.5q-28 0 -86 -7l-6 -1v-622l116 -37v-119h-497 v119l125 37v649l-125 24v119l381 47v-92q63 42 131 65t125 23q75 0 132 -22.5t101 -69.5z" />
<glyph unicode="n" horiz-adv-x="1096" d="M33 0v119l123 37v649l-123 24v119l379 47v-92q60 42 131.5 65t138.5 23q151 0 216 -78t65 -264v-493l122 -37v-119h-503v119l125 37v446q0 98 -45 141t-148 43q-22 0 -83 -6q-12 -1 -19 -2v-622l125 -37v-119h-504z" />
<glyph unicode="o" horiz-adv-x="1038" d="M520 131q93 0 134.5 84t41.5 270q0 189 -41.5 273t-134.5 84q-94 0 -136 -83.5t-42 -273.5q0 -189 42 -271.5t136 -82.5zM520 -25q-220 0 -339.5 132.5t-119.5 377.5q0 235 125 372.5t334 137.5q215 0 336 -134.5t121 -375.5q0 -233 -124 -371.5t-333 -138.5z" />
<glyph unicode="p" horiz-adv-x="1096" d="M408 -266l122 -37v-119h-501v119l123 37v1071l-123 24v119l379 47v-92q59 47 117.5 69.5t121.5 22.5q174 0 274.5 -120.5t100.5 -327.5q0 -269 -128 -420.5t-355 -151.5q-33 0 -66 6t-65 17v-264zM408 782v-622q4 -1 11 -1q44 -3 62 -3q134 0 205.5 82t71.5 237 q0 158 -63.5 237t-190.5 79q-28 -1 -90 -8z" />
<glyph unicode="q" horiz-adv-x="1075" d="M688 190v623q-14 1 -31 1.5t-45 0.5q-133 0 -204.5 -82t-71.5 -237q0 -157 63.5 -235.5t192.5 -78.5q20 0 76 6q14 2 20 2zM944 -266l123 -37v-119h-504v119l127 37v332q-60 -47 -118.5 -69t-120.5 -22q-173 0 -274 121.5t-101 329.5q0 261 125.5 415t333.5 154 q40 0 84 -9t96 -28l229 37v-1261z" />
<glyph unicode="r" horiz-adv-x="797" d="M33 0v119l125 37v649l-125 24v119l381 47v-118q80 60 147.5 87t136.5 27q33 0 61.5 -6.5t59.5 -19.5v-240h-248l-26 63q-38 -3 -70 -10t-61 -18v-604l151 -37v-119h-532z" />
<glyph unicode="s" horiz-adv-x="838" d="M63 53v203h224l53 -129q12 -1 24.5 -1.5t28.5 -0.5q68 0 105 27t37 77q0 59 -132 131q-26 14 -38 21q-191 106 -241 170.5t-50 159.5q0 133 93.5 208.5t260.5 75.5q83 0 162.5 -14t159.5 -43v-213h-224l-47 119q-15 1 -28 1.5t-27 0.5q-57 0 -87 -21t-30 -61 q0 -62 152 -141q53 -28 84 -45q138 -78 185.5 -142.5t47.5 -159.5q0 -137 -99.5 -219t-268.5 -82q-92 0 -176.5 19.5t-168.5 58.5z" />
<glyph unicode="t" horiz-adv-x="692" d="M135 819h-123v123l174 90l80 168h125v-227h281v-154h-281v-446q0 -117 35.5 -154t124.5 -37q19 0 49.5 3.5t71.5 9.5v-150q-82 -35 -155 -52.5t-140 -17.5q-133 0 -187.5 68.5t-54.5 245.5v530z" />
<glyph unicode="u" horiz-adv-x="1087" d="M686 805l-123 24v119l379 47v-827l123 -27v-116l-379 -50v88q-61 -42 -131.5 -65t-138.5 -23q-155 0 -218 71.5t-63 272.5v486l-123 24v119l379 47v-630q0 -99 45 -142t148 -43q23 0 49 2t53 6v617z" />
<glyph unicode="v" horiz-adv-x="999" d="M358 0l-258 815l-104 39v119h498v-119l-119 -39l162 -582l165 582l-118 39v119h422v-119l-105 -39l-268 -815h-275z" />
<glyph unicode="w" horiz-adv-x="1538" d="M324 0l-226 815l-104 39v119h481v-119l-115 -39l134 -573l192 731h215l195 -725l145 567l-119 39v119h420v-119l-102 -39l-248 -815h-248l-182 666l-182 -666h-256z" />
<glyph unicode="x" horiz-adv-x="1001" d="M16 0v119l86 37l271 323l-252 336l-92 39v119h463v-119l-86 -39l124 -164l119 164l-86 39v119h391v-119l-92 -39l-233 -293l280 -366l92 -37v-119h-485v119l105 37l-142 190l-133 -190l105 -37v-119h-435z" />
<glyph unicode="y" horiz-adv-x="1006" d="M96 815l-104 37v119h500v-119l-119 -37l157 -530l172 530l-118 37v119h424v-119l-105 -37l-360 -956q-63 -165 -130.5 -223t-181.5 -58q-48 0 -92.5 11t-89.5 34v215h213l31 -82q17 0 27 8t18 29l70 182z" />
<glyph unicode="z" horiz-adv-x="930" d="M55 0v160l518 665h-215l-39 -100h-223v248h772v-148l-524 -678h260l41 105h223v-252h-813z" />
<glyph unicode="{" horiz-adv-x="1024" d="M852 1516v-61q-121 -3 -165 -55t-44 -210v-133q0 -225 -53.5 -307t-196.5 -115q143 -32 196.5 -113t53.5 -307v-135q0 -158 44 -210t165 -55v-59q-235 0 -320.5 72.5t-85.5 273.5v193q0 165 -56 226.5t-212 76.5v76q156 15 212 76.5t56 226.5v192q0 201 85.5 274 t320.5 73z" />
<glyph unicode="|" horiz-adv-x="1024" d="M410 1565h206v-2048h-206v2048z" />
<glyph unicode="}" horiz-adv-x="1024" d="M172 1516q236 0 322 -73t86 -274v-192q0 -165 56 -226.5t212 -76.5v-76q-156 -15 -212 -76.5t-56 -226.5v-193q0 -198 -85 -272t-311 -74h-12v59q119 2 164 55t45 210v135q0 226 53.5 307t196.5 113q-143 33 -196.5 115t-53.5 307v133q0 156 -45 209.5t-164 55.5v61z" />
<glyph unicode="~" horiz-adv-x="1706" d="M1530 803v-221q-104 -71 -196.5 -104.5t-182.5 -33.5q-46 0 -92 8t-92 23q-24 8 -71 25q-219 75 -333 75q-85 0 -177.5 -37.5t-207.5 -119.5v221q107 72 204 107.5t183 35.5q117 0 291 -58q3 -1 4 -1q18 -6 55 -19q155 -55 240 -55t175 37t200 117z" />
<glyph unicode="&#xa0;" />
<glyph unicode="&#xa1;" horiz-adv-x="555" d="M276 1266q77 0 117.5 -33t40.5 -94q0 -62 -40.5 -94.5t-117.5 -32.5q-76 0 -115.5 32.5t-39.5 94.5t39.5 94.5t115.5 32.5zM369 952l59 -774q3 -38 4.5 -58t1.5 -22q0 -59 -41 -91t-117 -32t-116.5 33.5t-40.5 95.5q0 4 1.5 22.5t4.5 52.5l61 773h183z" />
<glyph unicode="&#xa2;" d="M881 74q-95 -37 -155 -52t-111 -18l-1 -166h-118v162q-189 15 -288 137t-99 340q0 223 101.5 363.5t285.5 171.5v168h118v-162q59 0 125 -15t142 -45v-208h-246l-39 102q-108 -13 -165.5 -96.5t-57.5 -227.5q0 -162 81 -241.5t246 -79.5q46 0 90 4.5t91 13.5v-151z" />
<glyph unicode="&#xa3;" d="M918 1196v-252h-222l-63 156q-91 0 -130.5 -47t-39.5 -156v-164h242v-151h-242v-136q0 -83 -27 -136t-92 -97h358l56 133h192v-346h-860v176q56 27 84.5 87t28.5 153v166h-113v151h113v146q0 198 96 292.5t297 94.5q74 0 154 -17.5t168 -52.5z" />
<glyph unicode="&#xa4;" horiz-adv-x="1241" d="M623 1161q-113 0 -195 -82t-82 -194q0 -114 81 -194.5t196 -80.5q113 0 194.5 80.5t81.5 194.5q0 112 -81.5 194t-194.5 82zM172 1438l205 -203q54 39 114 58.5t130 19.5t131.5 -19.5t115.5 -58.5l203 203l105 -107l-203 -205q38 -53 57 -113.5t19 -127.5t-19 -127 t-57 -115l203 -205l-105 -104l-203 203q-54 -40 -115 -59t-130 -19q-72 0 -132.5 19t-113.5 59l-205 -203l-104 104l202 205q-38 54 -56.5 113.5t-18.5 128.5q0 67 18.5 127.5t56.5 113.5l-202 205z" />
<glyph unicode="&#xa5;" horiz-adv-x="1139" d="M295 0v119l151 37v354h-305v104h248l-72 144h-176v104h125l-106 223l-94 39v117h440v-117l-94 -39l182 -389l176 389l-94 39v117h393v-117l-96 -39l-117 -223h137v-104h-192l-74 -144h266v-104h-301v-354l152 -37v-119h-549z" />
<glyph unicode="&#xa6;" horiz-adv-x="1024" d="M410 408h206v-758h-206v758zM410 1432h206v-758h-206v758z" />
<glyph unicode="&#xa7;" horiz-adv-x="985" d="M549 268q61 29 91 72t30 100q0 66 -43.5 112.5t-192.5 121.5q-58 -26 -90.5 -72t-32.5 -102q0 -59 40.5 -103t197.5 -129zM150 -287v209h221l51 -121h20q70 0 106 28t36 81q0 37 -27.5 66.5t-125.5 82.5q-17 9 -48 26q-309 164 -309 368q0 111 56 186.5t167 114.5 q-73 54 -106 113.5t-33 136.5q0 132 98 209t268 77q79 0 155.5 -15t154.5 -46v-207h-224l-51 119h-41q-52 0 -83.5 -27.5t-31.5 -73.5q0 -42 28.5 -75.5t92.5 -67.5q31 -16 90 -45q108 -54 150 -84q75 -54 115.5 -125.5t40.5 -150.5q0 -107 -63 -189t-171 -115 q73 -51 107 -110.5t34 -134.5q0 -133 -102 -211t-279 -78q-73 0 -146 14.5t-150 44.5z" />
<glyph unicode="&#xa8;" horiz-adv-x="1024" d="M463 1255q0 -63 -27 -94t-82 -31t-81.5 31t-26.5 94q0 64 26.5 94.5t81.5 30.5t82 -30.5t27 -94.5zM772 1255q0 -63 -27 -94t-81 -31q-55 0 -82 31t-27 94q0 64 27 94.5t82 30.5q54 0 81 -30.5t27 -94.5z" />
<glyph unicode="&#xa9;" horiz-adv-x="1683" d="M1126 1102h45v-326h-47q-31 131 -100 202t-164 71q-118 0 -175.5 -90.5t-57.5 -274.5q0 -185 62.5 -281t182.5 -96q80 0 148.5 44t124.5 130l45 -28q-63 -107 -150.5 -161t-197.5 -54q-185 0 -308.5 122.5t-123.5 303.5q0 191 121 316.5t305 125.5q79 0 153 -33t80 -33 q24 0 37.5 15t19.5 47zM844 1309q-127 0 -241.5 -48t-203.5 -139q-89 -90 -135.5 -204t-46.5 -240q0 -128 46.5 -242t135.5 -203q90 -89 202 -135.5t241 -46.5q127 0 240 47t200 135q89 91 136.5 206t47.5 239q0 127 -47.5 244t-134.5 202q-87 88 -203 136.5t-237 48.5z M844 1413q141 0 275.5 -56t238.5 -159q102 -102 159.5 -239.5t57.5 -280.5t-56.5 -277.5t-160.5 -240.5q-102 -104 -235 -158.5t-281 -54.5t-279 54t-237 159q-105 104 -160 237t-55 281t54.5 281.5t158.5 236.5q103 104 239 160.5t281 56.5z" />
<glyph unicode="&#xaa;" horiz-adv-x="743" d="M452 686v199q-118 -5 -163 -29.5t-45 -81.5q0 -48 29.5 -73t86.5 -25q24 0 46.5 2.5t45.5 7.5zM453 545v63q-40 -31 -89 -47t-102 -16q-97 0 -156 59.5t-59 159.5q0 111 78 164t242 53q12 0 41 -1t45 -1v53q0 73 -21.5 99t-73.5 26q-7 0 -16.5 -1.5t-24.5 -5.5l-32 -81 h-185v113q78 38 149 56.5t136 18.5q137 0 197.5 -46.5t60.5 -153.5v-379l92 -19v-81z" />
<glyph unicode="&#xab;" horiz-adv-x="829" d="M741 848l-114 -344l114 -344h-198l-127 344l127 344h198zM399 848l-112 -344l112 -344h-198l-127 344l127 344h198z" />
<glyph unicode="&#xac;" horiz-adv-x="1706" d="M254 864h1198v-502h-199v306h-999v196z" />
<glyph unicode="&#xad;" horiz-adv-x="410" d="M25 410v194h362v-194h-362z" />
<glyph unicode="&#xae;" horiz-adv-x="1683" d="M760 723q7 -1 16 -1.5t27 -0.5q96 0 144 45t48 135q0 60 -43 103t-106 43q-44 0 -65 -16.5t-21 -49.5v-258zM465 1098h403q146 0 234 -55.5t88 -143.5q0 -86 -64.5 -134.5t-214.5 -74.5q95 -22 149 -69.5t70 -124.5q6 -25 10 -74q5 -84 46 -84q28 0 42.5 29.5t14.5 87.5 v12h51v-23q0 -88 -44 -134t-128 -46q-47 0 -82.5 14t-56.5 41q-28 40 -33 134q-2 45 -6 67q-14 79 -54 116.5t-112 37.5h-18v-246q0 -46 20 -65t78 -27v-51h-393v50q61 4 83.5 24t22.5 69v522q0 49 -22.5 69.5t-83.5 25.5v53zM844 1309q-126 0 -241.5 -48.5t-203.5 -138.5 q-89 -90 -135.5 -204t-46.5 -240q0 -128 46.5 -242t135.5 -203q90 -89 202 -135.5t241 -46.5q127 0 240 47t200 135q89 91 136.5 206t47.5 239q0 125 -48.5 243t-135.5 203q-88 88 -202.5 136.5t-235.5 48.5zM844 1413q145 0 284 -59.5t242 -165.5q98 -101 150.5 -236.5 t52.5 -285.5q0 -139 -61 -277t-171 -244q-99 -96 -227.5 -147t-271.5 -51q-110 0 -211.5 30.5t-190.5 90.5q-157 104 -243 263.5t-86 346.5q0 146 55 280t158 238q102 104 237.5 160.5t282.5 56.5z" />
<glyph unicode="&#xaf;" horiz-adv-x="1024" d="M242 1174v176h538v-176h-538z" />
<glyph unicode="&#xb0;" horiz-adv-x="674" d="M338 1335q-73 0 -124.5 -51t-51.5 -123q0 -74 51 -125t125 -51q72 0 123 52t51 124t-51 123t-123 51zM338 1464q126 0 214.5 -89.5t88.5 -215.5q0 -125 -89 -214t-216 -89q-126 0 -213.5 88t-87.5 215t88.5 216t214.5 89z" />
<glyph unicode="&#xb1;" horiz-adv-x="1706" d="M254 197h1198v-199h-1198v199zM752 1223h202v-326h498v-199h-498v-325h-202v325h-498v199h498v326z" />
<glyph unicode="&#xb2;" horiz-adv-x="653" d="M25 496v10q-2 0 -2 18q0 54 27 101.5t106 117.5q36 34 101 90q163 141 163 211q0 55 -39 85t-111 30q-14 0 -22.5 -0.5t-13.5 -1.5l-44 -94h-145v135q74 29 145.5 43t141.5 14q126 0 198 -54t72 -148q0 -121 -215 -277l-14 -10q-17 -12 -49 -33q-99 -67 -129 -115h247 l35 80h127v-202h-579z" />
<glyph unicode="&#xb3;" horiz-adv-x="653" d="M35 530v105q69 -16 120.5 -23.5t92.5 -7.5q86 0 129 28.5t43 86.5q0 68 -37.5 98.5t-122.5 30.5q-13 0 -19.5 -0.5t-12.5 -1.5l-1 94h13q75 0 113 29.5t38 89.5q0 49 -33.5 75.5t-95.5 26.5h-10l-43 -98h-148v135q79 29 148 43t131 14q113 0 174 -46.5t61 -133.5 q0 -73 -46 -118.5t-134 -59.5q95 -8 148 -59.5t53 -135.5q0 -99 -81 -160t-214 -61q-52 0 -117 12t-149 37z" />
<glyph unicode="&#xb4;" horiz-adv-x="1024" d="M500 1090l-174 47l190 280l252 -61z" />
<glyph unicode="&#xb5;" horiz-adv-x="1202" d="M178 209q-12 -95 -29 -252q-40 -381 -155 -381q-54 0 -84.5 30.5t-30.5 84.5q0 47 68 274t106 408l109 512h256l-99 -459q-11 -53 -16.5 -89t-5.5 -58q0 -59 30.5 -92t84.5 -33q71 0 116 53t68 166l109 512h256l-115 -533q-9 -41 -13 -66.5t-4 -43.5q0 -47 17.5 -67.5 t56.5 -20.5q40 0 66 18t45 59q8 19 21 50q27 69 55 69q15 0 23.5 -10t8.5 -29q0 -34 -16.5 -88.5t-42.5 -101.5q-41 -74 -99 -110t-137 -36q-85 0 -129.5 48t-54.5 151q-40 -106 -98.5 -152.5t-149.5 -46.5q-93 0 -149.5 61t-67.5 173z" />
<glyph unicode="&#xb6;" horiz-adv-x="1024" d="M983 1479v-111h-113v-1368h-151v1368h-158v-1368h-153v784q-167 6 -267 101t-100 245q0 158 107 253.5t284 95.5h551z" />
<glyph unicode="&#xb7;" horiz-adv-x="473" d="M238 471q-78 0 -118 38t-40 112q0 73 40 111t118 38q76 0 115.5 -38t39.5 -111q0 -74 -39.5 -112t-115.5 -38z" />
<glyph unicode="&#xb8;" horiz-adv-x="1024" d="M432 0h133v-67q59 -5 96 -46t37 -102q0 -87 -73 -146t-203 -77l-31 106q58 24 86.5 53.5t28.5 65.5q0 29 -19 47t-55 23v143z" />
<glyph unicode="&#xb9;" horiz-adv-x="653" d="M164 496v71l100 23v512q-37 -13 -83 -20t-105 -9v88q59 10 117 30t114 50h133v-651l101 -23v-71h-377z" />
<glyph unicode="&#xba;" horiz-adv-x="778" d="M391 653q69 0 100 58.5t31 189.5q0 133 -31 191.5t-100 58.5q-71 0 -103 -59t-32 -191t32 -190t103 -58zM391 545q-166 0 -255 92t-89 264q0 164 93 260t251 96q162 0 252 -93.5t90 -262.5q0 -163 -92.5 -259.5t-249.5 -96.5z" />
<glyph unicode="&#xbb;" horiz-adv-x="829" d="M74 846h198l127 -344l-127 -342h-198l114 342zM416 846h198l127 -344l-127 -342h-198l112 342z" />
<glyph unicode="&#xbc;" horiz-adv-x="1591" d="M1319 299v252l-213 -252h213zM1241 0v66l78 22v105h-344v110l344 391h156v-395h102v-106h-102v-105l75 -22v-66h-309zM1303 975l-951 -797l-63 92l950 795zM156 547v65l96 23v477q-37 -12 -82.5 -18.5t-99.5 -7.5v81q55 9 111 27.5t112 46.5h127v-606l94 -23v-65h-358z " />
<glyph unicode="&#xbd;" horiz-adv-x="1591" d="M989 0v8v19q0 50 26.5 95t98.5 109q34 30 93 80q159 134 159 201q0 50 -37.5 78t-103.5 28h-37l-39 -90h-139v127q70 28 138.5 42t133.5 14q121 0 190.5 -51t69.5 -140q0 -113 -209 -260l-12 -8q-15 -11 -45 -30q-96 -63 -123 -107h238l30 73h123v-188h-555zM1303 975 l-951 -797l-63 92l950 795zM156 547v65l96 23v477q-37 -12 -82.5 -18.5t-99.5 -7.5v81q55 9 111 27.5t112 46.5h127v-606l94 -23v-65h-358z" />
<glyph unicode="&#xbe;" horiz-adv-x="1591" d="M1319 299v252l-213 -252h213zM1241 0v66l78 22v105h-344v110l344 391h156v-395h102v-106h-102v-105l75 -22v-66h-309zM1303 975l-951 -797l-63 92l950 795zM33 580v96q65 -14 114.5 -20.5t90.5 -6.5q82 0 122.5 26.5t40.5 80.5q0 62 -36 90t-115 28h-33v87h12 q71 0 108.5 28t37.5 82q0 47 -33 72.5t-92 25.5h-10l-41 -94h-140v127q79 29 143.5 42t123.5 13q106 0 164.5 -44.5t58.5 -125.5q0 -68 -43.5 -109.5t-128.5 -55.5q91 -6 141.5 -54.5t50.5 -128.5q0 -92 -77.5 -149.5t-204.5 -57.5q-48 0 -109 11.5t-145 36.5z" />
<glyph unicode="&#xbf;" horiz-adv-x="967" d="M530 1266q77 0 116.5 -32.5t39.5 -94.5t-39.5 -94.5t-116.5 -32.5q-76 0 -116.5 32.5t-40.5 94.5q0 61 40.5 94t116.5 33zM621 952v-84q0 -92 -89 -206q-19 -25 -28 -37q-15 -21 -43 -58q-117 -155 -117 -241q0 -93 58.5 -141t172.5 -48h41l70 162h223v-229 q-122 -48 -231 -71.5t-205 -23.5q-187 0 -297 92t-110 246t244 379l11 10q15 15 42 37q75 65 75 138v75h183z" />
<glyph unicode="&#xc0;" horiz-adv-x="1212" d="M436 592h281l-139 508zM0 0v119l104 37l349 1085h335l320 -1085l104 -37v-119h-503v119l122 37l-75 290h-361l-80 -290l125 -37v-119h-440zM690 1362l-270 266l252 61l190 -280z" />
<glyph unicode="&#xc1;" horiz-adv-x="1212" d="M436 592h281l-139 508zM0 0v119l104 37l349 1085h335l320 -1085l104 -37v-119h-503v119l122 37l-75 290h-361l-80 -290l125 -37v-119h-440zM594 1362l-174 47l190 280l252 -61z" />
<glyph unicode="&#xc2;" horiz-adv-x="1212" d="M436 592h281l-139 508zM0 0v119l104 37l349 1085h335l320 -1085l104 -37v-119h-503v119l122 37l-75 290h-361l-80 -290l125 -37v-119h-440zM438 1376l-147 51l221 277h186l221 -277l-151 -51l-166 160z" />
<glyph unicode="&#xc3;" horiz-adv-x="1212" d="M436 592h281l-139 508zM0 0v119l104 37l349 1085h335l320 -1085l104 -37v-119h-503v119l122 37l-75 290h-361l-80 -290l125 -37v-119h-440zM362 1415l-92 100q71 77 119 107t94 30q51 0 134 -34.5t112 -34.5q26 0 54 16.5t63 52.5l92 -100q-71 -77 -119 -107t-94 -30 q-48 0 -130 33.5t-114 33.5q-28 0 -56.5 -16t-62.5 -51z" />
<glyph unicode="&#xc4;" horiz-adv-x="1212" d="M436 592h281l-139 508zM0 0v119l104 37l349 1085h335l320 -1085l104 -37v-119h-503v119l122 37l-75 290h-361l-80 -290l125 -37v-119h-440zM557 1527q0 -63 -27 -94t-82 -31t-81.5 31t-26.5 94q0 64 26.5 94.5t81.5 30.5t82 -30.5t27 -94.5zM866 1527q0 -63 -27 -94 t-81 -31q-55 0 -82 31t-27 94q0 64 27 94.5t82 30.5q54 0 81 -30.5t27 -94.5z" />
<glyph unicode="&#xc5;" horiz-adv-x="1212" d="M496 1581q0 -54 37.5 -92.5t91.5 -38.5q52 0 90.5 39t38.5 92t-38.5 91t-90.5 38q-54 0 -91.5 -37.5t-37.5 -91.5zM352 1581q0 114 79 193t194 79q113 0 192.5 -79t79.5 -193t-79.5 -193t-192.5 -79q-116 0 -194.5 78.5t-78.5 193.5zM0 0v119l104 37l349 1085h335 l320 -1085l104 -37v-119h-503v119l122 37l-75 290h-361l-80 -290l125 -37v-119h-440zM436 592h281l-139 508z" />
<glyph unicode="&#xc6;" horiz-adv-x="1505" d="M1446 1241v-297h-209l-68 152h-254v-418h209l52 123h174v-393h-174l-52 122h-209v-383h271l74 170h206v-317h-944v119l123 37v374h-262l-156 -374l119 -37v-119h-432v119l104 37l486 1085h942zM446 678h199v481z" />
<glyph unicode="&#xc7;" horiz-adv-x="1049" d="M1020 43q-90 -34 -176.5 -51t-171.5 -17q-290 0 -460.5 169.5t-170.5 457.5q0 298 182 482t475 184q85 0 163.5 -18t158.5 -56v-250h-219l-62 156q-189 0 -299 -126.5t-110 -342.5q0 -223 111.5 -337t328.5 -114q55 0 116 5.5t134 17.5v-160zM559 0h133v-67q59 -5 96 -46 t37 -102q0 -87 -73 -146t-203 -77l-31 106q58 24 86.5 53.5t28.5 65.5q0 29 -19 47t-55 23v143z" />
<glyph unicode="&#xc8;" horiz-adv-x="1014" d="M31 0v119l123 37v929l-123 39v117h923v-297h-206l-70 152h-254v-383h209l51 125h174v-396h-174l-51 123h-209v-418h272l72 170h209v-317h-946zM592 1362l-270 266l252 61l190 -280z" />
<glyph unicode="&#xc9;" horiz-adv-x="1014" d="M31 0v119l123 37v929l-123 39v117h923v-297h-206l-70 152h-254v-383h209l51 125h174v-396h-174l-51 123h-209v-418h272l72 170h209v-317h-946zM496 1362l-174 47l190 280l252 -61z" />
<glyph unicode="&#xca;" horiz-adv-x="1014" d="M31 0v119l123 37v929l-123 39v117h923v-297h-206l-70 152h-254v-383h209l51 125h174v-396h-174l-51 123h-209v-418h272l72 170h209v-317h-946zM340 1376l-147 51l221 277h186l221 -277l-151 -51l-166 160z" />
<glyph unicode="&#xcb;" horiz-adv-x="1014" d="M31 0v119l123 37v929l-123 39v117h923v-297h-206l-70 152h-254v-383h209l51 125h174v-396h-174l-51 123h-209v-418h272l72 170h209v-317h-946zM459 1527q0 -63 -27 -94t-82 -31t-81.5 31t-26.5 94q0 64 26.5 94.5t81.5 30.5t82 -30.5t27 -94.5zM768 1527q0 -63 -27 -94 t-81 -31q-55 0 -82 31t-27 94q0 64 27 94.5t82 30.5q54 0 81 -30.5t27 -94.5z" />
<glyph unicode="&#xcc;" horiz-adv-x="578" d="M547 1241v-117l-123 -39v-929l123 -37v-119h-516v119l123 37v929l-123 39v117h516zM373 1362l-270 266l252 61l190 -280z" />
<glyph unicode="&#xcd;" horiz-adv-x="578" d="M547 1241v-117l-123 -39v-929l123 -37v-119h-516v119l123 37v929l-123 39v117h516zM277 1362l-174 47l190 280l252 -61z" />
<glyph unicode="&#xce;" horiz-adv-x="578" d="M547 1241v-117l-123 -39v-929l123 -37v-119h-516v119l123 37v929l-123 39v117h516zM121 1376l-147 51l221 277h186l221 -277l-151 -51l-166 160z" />
<glyph unicode="&#xcf;" horiz-adv-x="578" d="M547 1241v-117l-123 -39v-929l123 -37v-119h-516v119l123 37v929l-123 39v117h516zM240 1527q0 -63 -27 -94t-82 -31t-81.5 31t-26.5 94q0 64 26.5 94.5t81.5 30.5t82 -30.5t27 -94.5zM549 1527q0 -63 -27 -94t-81 -31q-55 0 -82 31t-27 94q0 64 27 94.5t82 30.5 q54 0 81 -30.5t27 -94.5z" />
<glyph unicode="&#xd0;" horiz-adv-x="1329" d="M496 156h106q201 0 297 114.5t96 354.5q0 236 -97.5 348t-301.5 112h-100v-383h249v-161h-249v-385zM102 0v119l123 37v385h-135v161h135v383l-123 39v117h512q178 0 265.5 -19.5t160.5 -64.5q122 -75 186 -210.5t64 -313.5q0 -302 -176 -467.5t-500 -165.5h-512z" />
<glyph unicode="&#xd1;" horiz-adv-x="1239" d="M31 0v119l123 37v929l-123 39v117h405l486 -870v714l-123 39v117h426v-117l-123 -39v-1085h-240l-528 946v-790l123 -37v-119h-426zM377 1415l-92 100q71 77 119 107t94 30q51 0 134 -34.5t112 -34.5q26 0 54 16.5t63 52.5l92 -100q-71 -77 -119 -107t-94 -30 q-48 0 -130 33.5t-114 33.5q-28 0 -56.5 -16t-62.5 -51z" />
<glyph unicode="&#xd2;" horiz-adv-x="1233" d="M616 137q144 0 215.5 121t71.5 363q0 237 -73 360t-216 123q-139 0 -211.5 -124t-72.5 -359q0 -240 72 -362t214 -122zM616 -25q-269 0 -423 164t-154 451q0 309 162.5 492.5t433.5 183.5q255 0 406 -166t151 -447q0 -310 -156.5 -494t-419.5 -184zM700 1362l-270 266 l252 61l190 -280z" />
<glyph unicode="&#xd3;" horiz-adv-x="1233" d="M616 137q144 0 215.5 121t71.5 363q0 237 -73 360t-216 123q-139 0 -211.5 -124t-72.5 -359q0 -240 72 -362t214 -122zM616 -25q-269 0 -423 164t-154 451q0 309 162.5 492.5t433.5 183.5q255 0 406 -166t151 -447q0 -310 -156.5 -494t-419.5 -184zM604 1362l-174 47 l190 280l252 -61z" />
<glyph unicode="&#xd4;" horiz-adv-x="1233" d="M616 137q144 0 215.5 121t71.5 363q0 237 -73 360t-216 123q-139 0 -211.5 -124t-72.5 -359q0 -240 72 -362t214 -122zM616 -25q-269 0 -423 164t-154 451q0 309 162.5 492.5t433.5 183.5q255 0 406 -166t151 -447q0 -310 -156.5 -494t-419.5 -184zM448 1376l-147 51 l221 277h186l221 -277l-151 -51l-166 160z" />
<glyph unicode="&#xd5;" horiz-adv-x="1233" d="M616 137q144 0 215.5 121t71.5 363q0 237 -73 360t-216 123q-139 0 -211.5 -124t-72.5 -359q0 -240 72 -362t214 -122zM616 -25q-269 0 -423 164t-154 451q0 309 162.5 492.5t433.5 183.5q255 0 406 -166t151 -447q0 -310 -156.5 -494t-419.5 -184zM372 1415l-92 100 q71 77 119 107t94 30q51 0 134 -34.5t112 -34.5q26 0 54 16.5t63 52.5l92 -100q-71 -77 -119 -107t-94 -30q-48 0 -130 33.5t-114 33.5q-28 0 -56.5 -16t-62.5 -51z" />
<glyph unicode="&#xd6;" horiz-adv-x="1233" d="M616 137q144 0 215.5 121t71.5 363q0 237 -73 360t-216 123q-139 0 -211.5 -124t-72.5 -359q0 -240 72 -362t214 -122zM616 -25q-269 0 -423 164t-154 451q0 309 162.5 492.5t433.5 183.5q255 0 406 -166t151 -447q0 -310 -156.5 -494t-419.5 -184zM567 1527 q0 -63 -27 -94t-82 -31t-81.5 31t-26.5 94q0 64 26.5 94.5t81.5 30.5t82 -30.5t27 -94.5zM876 1527q0 -63 -27 -94t-81 -31q-55 0 -82 31t-27 94q0 64 27 94.5t82 30.5q54 0 81 -30.5t27 -94.5z" />
<glyph unicode="&#xd7;" horiz-adv-x="1706" d="M416 1202l450 -450l451 450l141 -139l-450 -453l450 -450l-141 -140l-451 451l-450 -451l-140 140l451 450l-451 453z" />
<glyph unicode="&#xd8;" horiz-adv-x="1233" d="M874 860l-446 -639q28 -41 76.5 -62.5t111.5 -21.5q144 0 215.5 121t71.5 363q0 54 -7 114.5t-22 124.5zM354 379l453 637q-34 44 -81.5 66t-111.5 22q-139 0 -211.5 -124t-72.5 -359q0 -83 5.5 -138.5t18.5 -103.5zM307 51l-135 -188l-117 90l135 190q-75 79 -113 192 t-38 259q0 307 164 489.5t438 182.5q84 0 156 -19t133 -57l123 174l114 -88l-123 -180q76 -84 112 -191t36 -252q0 -316 -159 -497t-439 -181q-86 0 -156 18.5t-131 57.5z" />
<glyph unicode="&#xd9;" horiz-adv-x="1239" d="M127 1085l-123 39v117h518v-117l-125 -39v-639q0 -162 58 -232.5t188 -70.5q128 0 182 64.5t54 222.5v655l-123 39v117h473v-117l-123 -39v-624q0 -145 -16 -212t-54 -114q-64 -79 -169 -119.5t-251 -40.5q-264 0 -376.5 104.5t-112.5 356.5v649zM705 1362l-270 266 l252 61l190 -280z" />
<glyph unicode="&#xda;" horiz-adv-x="1239" d="M127 1085l-123 39v117h518v-117l-125 -39v-639q0 -162 58 -232.5t188 -70.5q128 0 182 64.5t54 222.5v655l-123 39v117h473v-117l-123 -39v-624q0 -145 -16 -212t-54 -114q-64 -79 -169 -119.5t-251 -40.5q-264 0 -376.5 104.5t-112.5 356.5v649zM609 1362l-174 47 l190 280l252 -61z" />
<glyph unicode="&#xdb;" horiz-adv-x="1239" d="M127 1085l-123 39v117h518v-117l-125 -39v-639q0 -162 58 -232.5t188 -70.5q128 0 182 64.5t54 222.5v655l-123 39v117h473v-117l-123 -39v-624q0 -145 -16 -212t-54 -114q-64 -79 -169 -119.5t-251 -40.5q-264 0 -376.5 104.5t-112.5 356.5v649zM453 1376l-147 51 l221 277h186l221 -277l-151 -51l-166 160z" />
<glyph unicode="&#xdc;" horiz-adv-x="1239" d="M127 1085l-123 39v117h518v-117l-125 -39v-639q0 -162 58 -232.5t188 -70.5q128 0 182 64.5t54 222.5v655l-123 39v117h473v-117l-123 -39v-624q0 -145 -16 -212t-54 -114q-64 -79 -169 -119.5t-251 -40.5q-264 0 -376.5 104.5t-112.5 356.5v649zM572 1527q0 -63 -27 -94 t-82 -31t-81.5 31t-26.5 94q0 64 26.5 94.5t81.5 30.5t82 -30.5t27 -94.5zM881 1527q0 -63 -27 -94t-81 -31q-55 0 -82 31t-27 94q0 64 27 94.5t82 30.5q54 0 81 -30.5t27 -94.5z" />
<glyph unicode="&#xdd;" horiz-adv-x="1139" d="M295 0v119l151 37v354l-331 575l-105 39v117h510v-117l-104 -39l200 -389l199 389l-102 39v117h434v-117l-105 -39l-325 -544v-385l151 -37v-119h-573zM557 1362l-174 47l190 280l252 -61z" />
<glyph unicode="&#xde;" horiz-adv-x="995" d="M424 416h82q91 0 146 62.5t55 168.5q0 103 -53.5 159t-151.5 56h-78v-446zM31 0v119l123 37v929l-123 39v117h516v-117l-123 -39v-75h76q134 0 199.5 -11t115.5 -36q83 -43 126.5 -120t43.5 -181q0 -196 -114.5 -295t-340.5 -99h-106v-112l158 -37v-119h-551z" />
<glyph unicode="&#xdf;" horiz-adv-x="1204" d="M8 0v119l123 37v825q0 118 12 170.5t41 87.5q54 67 160.5 104t243.5 37q199 0 315.5 -69.5t116.5 -186.5q0 -60 -31.5 -105t-152.5 -124q-10 -6 -27 -17q-109 -69 -109 -120q0 -56 155 -138q36 -19 56 -30q160 -89 208 -153.5t48 -160.5q0 -137 -99 -219t-269 -82 q-92 0 -176.5 19.5t-167.5 58.5v203h223l51 -129q12 -1 25 -1.5t30 -0.5q68 0 105 27t37 77q0 57 -125 126l-10 5q-208 113 -266 179t-58 153q0 56 25.5 105.5t85.5 107.5q7 8 22 22q102 97 102 163q0 61 -40.5 96t-112.5 35q-87 0 -124.5 -50.5t-37.5 -177.5v-993h-379z " />
<glyph unicode="&#xe0;" d="M602 179v281q-158 -6 -218 -41t-60 -116q0 -68 40 -103.5t117 -35.5q27 0 56.5 3.5t64.5 11.5zM602 -25v93q-53 -45 -118.5 -69t-133.5 -24q-130 0 -209.5 86t-79.5 228q0 160 104 235.5t322 75.5q34 0 103 -3q8 -1 12 -1v78q0 102 -28 139t-97 37q-8 0 -20.5 -1.5 t-32.5 -4.5l-45 -119h-246v162q102 54 197 81t182 27q184 0 265 -67t81 -221v-539l123 -27v-116zM580 1090l-270 266l252 61l190 -280z" />
<glyph unicode="&#xe1;" d="M602 179v281q-158 -6 -218 -41t-60 -116q0 -68 40 -103.5t117 -35.5q27 0 56.5 3.5t64.5 11.5zM602 -25v93q-53 -45 -118.5 -69t-133.5 -24q-130 0 -209.5 86t-79.5 228q0 160 104 235.5t322 75.5q34 0 103 -3q8 -1 12 -1v78q0 102 -28 139t-97 37q-8 0 -20.5 -1.5 t-32.5 -4.5l-45 -119h-246v162q102 54 197 81t182 27q184 0 265 -67t81 -221v-539l123 -27v-116zM484 1090l-174 47l190 280l252 -61z" />
<glyph unicode="&#xe2;" d="M602 179v281q-158 -6 -218 -41t-60 -116q0 -68 40 -103.5t117 -35.5q27 0 56.5 3.5t64.5 11.5zM602 -25v93q-53 -45 -118.5 -69t-133.5 -24q-130 0 -209.5 86t-79.5 228q0 160 104 235.5t322 75.5q34 0 103 -3q8 -1 12 -1v78q0 102 -28 139t-97 37q-8 0 -20.5 -1.5 t-32.5 -4.5l-45 -119h-246v162q102 54 197 81t182 27q184 0 265 -67t81 -221v-539l123 -27v-116zM328 1104l-147 51l221 277h186l221 -277l-151 -51l-166 160z" />
<glyph unicode="&#xe3;" d="M602 179v281q-158 -6 -218 -41t-60 -116q0 -68 40 -103.5t117 -35.5q27 0 56.5 3.5t64.5 11.5zM602 -25v93q-53 -45 -118.5 -69t-133.5 -24q-130 0 -209.5 86t-79.5 228q0 160 104 235.5t322 75.5q34 0 103 -3q8 -1 12 -1v78q0 102 -28 139t-97 37q-8 0 -20.5 -1.5 t-32.5 -4.5l-45 -119h-246v162q102 54 197 81t182 27q184 0 265 -67t81 -221v-539l123 -27v-116zM252 1143l-92 100q71 77 119 107t94 30q51 0 134 -34.5t112 -34.5q26 0 54 16.5t63 52.5l92 -100q-71 -77 -119 -107t-94 -30q-48 0 -130 33.5t-114 33.5q-28 0 -56.5 -16 t-62.5 -51z" />
<glyph unicode="&#xe4;" d="M602 179v281q-158 -6 -218 -41t-60 -116q0 -68 40 -103.5t117 -35.5q27 0 56.5 3.5t64.5 11.5zM602 -25v93q-53 -45 -118.5 -69t-133.5 -24q-130 0 -209.5 86t-79.5 228q0 160 104 235.5t322 75.5q34 0 103 -3q8 -1 12 -1v78q0 102 -28 139t-97 37q-8 0 -20.5 -1.5 t-32.5 -4.5l-45 -119h-246v162q102 54 197 81t182 27q184 0 265 -67t81 -221v-539l123 -27v-116zM447 1255q0 -63 -27 -94t-82 -31t-81.5 31t-26.5 94q0 64 26.5 94.5t81.5 30.5t82 -30.5t27 -94.5zM756 1255q0 -63 -27 -94t-81 -31q-55 0 -82 31t-27 94q0 64 27 94.5 t82 30.5q54 0 81 -30.5t27 -94.5z" />
<glyph unicode="&#xe5;" d="M371 1333q0 -54 37.5 -91.5t91.5 -37.5q53 0 91 38t38 91q0 54 -38.5 92.5t-90.5 38.5q-54 0 -91.5 -38.5t-37.5 -92.5zM227 1333q0 115 79 194t194 79q113 0 192.5 -79.5t79.5 -193.5q0 -113 -79 -191.5t-193 -78.5q-116 0 -194.5 77.5t-78.5 192.5zM602 -25v93 q-53 -45 -118.5 -69t-133.5 -24q-130 0 -209.5 86t-79.5 228q0 160 104 235.5t322 75.5q34 0 103 -3q8 -1 12 -1v78q0 102 -28 139t-97 37q-8 0 -20.5 -1.5t-32.5 -4.5l-45 -119h-246v162q102 54 197 81t182 27q184 0 265 -67t81 -221v-539l123 -27v-116zM602 179v281 q-158 -6 -218 -41t-60 -116q0 -68 40 -103.5t117 -35.5q27 0 56.5 3.5t64.5 11.5z" />
<glyph unicode="&#xe6;" horiz-adv-x="1481" d="M840 606l305 31v14q0 90 -35.5 137.5t-103.5 47.5q-81 0 -123.5 -54t-42.5 -157v-19zM602 179v281q-158 -6 -218 -41t-60 -116q0 -68 40 -103.5t117 -35.5q27 0 56.5 3.5t64.5 11.5zM1372 51q-100 -38 -186.5 -57t-165.5 -19q-107 0 -182.5 29t-130.5 90 q-67 -59 -151 -89t-183 -30q-148 0 -230 83.5t-82 232.5q0 159 104 234t322 75q33 0 109 -4h6v78q0 104 -27.5 140t-95.5 36q-8 0 -22 -1.5t-33 -4.5l-45 -119h-246v162q101 53 197 80.5t182 27.5q85 0 143.5 -18t118.5 -59q60 39 121.5 58t130.5 19q187 0 286 -117.5 t99 -340.5q0 -28 -0.5 -43t-1.5 -27h-567q6 -150 82.5 -217.5t242.5 -67.5q49 0 99.5 4.5t105.5 14.5v-150z" />
<glyph unicode="&#xe7;" horiz-adv-x="918" d="M848 51q-93 -38 -173.5 -57t-152.5 -19q-223 0 -334.5 122t-111.5 366q0 245 131.5 388.5t355.5 143.5q70 0 140 -15t145 -46v-209h-246l-39 104q-107 -12 -165 -96.5t-58 -228.5q0 -163 81 -242.5t247 -79.5q44 0 88.5 5t91.5 16v-152zM436 0h133v-67q59 -5 96 -46 t37 -102q0 -87 -73 -146t-203 -77l-31 106q58 24 86.5 53.5t28.5 65.5q0 29 -19 47t-55 23v143z" />
<glyph unicode="&#xe8;" horiz-adv-x="979" d="M340 606l305 31v16q0 91 -34.5 137t-102.5 46q-81 0 -124.5 -54.5t-43.5 -154.5v-21zM872 51q-96 -38 -182.5 -57t-167.5 -19q-223 0 -334.5 121.5t-111.5 364.5q0 250 117 392t321 142q198 0 297.5 -115.5t99.5 -344.5q0 -28 -0.5 -42.5t-1.5 -25.5h-567 q6 -150 83.5 -217.5t244.5 -67.5q49 0 99 4.5t103 14.5v-150zM602 1090l-270 266l252 61l190 -280z" />
<glyph unicode="&#xe9;" horiz-adv-x="979" d="M340 606l305 31v16q0 91 -34.5 137t-102.5 46q-81 0 -124.5 -54.5t-43.5 -154.5v-21zM872 51q-96 -38 -182.5 -57t-167.5 -19q-223 0 -334.5 121.5t-111.5 364.5q0 250 117 392t321 142q198 0 297.5 -115.5t99.5 -344.5q0 -28 -0.5 -42.5t-1.5 -25.5h-567 q6 -150 83.5 -217.5t244.5 -67.5q49 0 99 4.5t103 14.5v-150zM506 1090l-174 47l190 280l252 -61z" />
<glyph unicode="&#xea;" horiz-adv-x="979" d="M340 606l305 31v16q0 91 -34.5 137t-102.5 46q-81 0 -124.5 -54.5t-43.5 -154.5v-21zM872 51q-96 -38 -182.5 -57t-167.5 -19q-223 0 -334.5 121.5t-111.5 364.5q0 250 117 392t321 142q198 0 297.5 -115.5t99.5 -344.5q0 -28 -0.5 -42.5t-1.5 -25.5h-567 q6 -150 83.5 -217.5t244.5 -67.5q49 0 99 4.5t103 14.5v-150zM350 1104l-147 51l221 277h186l221 -277l-151 -51l-166 160z" />
<glyph unicode="&#xeb;" horiz-adv-x="979" d="M340 606l305 31v16q0 91 -34.5 137t-102.5 46q-81 0 -124.5 -54.5t-43.5 -154.5v-21zM872 51q-96 -38 -182.5 -57t-167.5 -19q-223 0 -334.5 121.5t-111.5 364.5q0 250 117 392t321 142q198 0 297.5 -115.5t99.5 -344.5q0 -28 -0.5 -42.5t-1.5 -25.5h-567 q6 -150 83.5 -217.5t244.5 -67.5q49 0 99 4.5t103 14.5v-150zM469 1255q0 -63 -27 -94t-82 -31t-81.5 31t-26.5 94q0 64 26.5 94.5t81.5 30.5t82 -30.5t27 -94.5zM778 1255q0 -63 -27 -94t-81 -31q-55 0 -82 31t-27 94q0 64 27 94.5t82 30.5q54 0 81 -30.5t27 -94.5z" />
<glyph unicode="&#xec;" horiz-adv-x="565" d="M420 156l123 -37v-119h-502v119l123 37v649l-123 24v119l379 47v-839zM367 1090l-270 266l252 61l190 -280z" />
<glyph unicode="&#xed;" horiz-adv-x="565" d="M420 156l123 -37v-119h-502v119l123 37v649l-123 24v119l379 47v-839zM271 1090l-174 47l190 280l252 -61z" />
<glyph unicode="&#xee;" horiz-adv-x="565" d="M420 156l123 -37v-119h-502v119l123 37v649l-123 24v119l379 47v-839zM115 1104l-147 51l221 277h186l221 -277l-151 -51l-166 160z" />
<glyph unicode="&#xef;" horiz-adv-x="565" d="M420 156l123 -37v-119h-502v119l123 37v649l-123 24v119l379 47v-839zM234 1255q0 -63 -27 -94t-82 -31t-81.5 31t-26.5 94q0 64 26.5 94.5t81.5 30.5t82 -30.5t27 -94.5zM543 1255q0 -63 -27 -94t-81 -31q-55 0 -82 31t-27 94q0 64 27 94.5t82 30.5q54 0 81 -30.5 t27 -94.5z" />
<glyph unicode="&#xf0;" horiz-adv-x="1038" d="M621 942q-30 70 -50.5 114t-40.5 81l-270 -109l-37 102l248 105q-15 23 -35.5 53t-46.5 66l107 73q38 -36 71.5 -69.5t61.5 -65.5l260 107l43 -101l-232 -96q139 -206 208 -388.5t69 -342.5q0 -226 -124.5 -361t-332.5 -135q-217 0 -338 127t-121 357q0 233 119.5 367.5 t325.5 134.5q35 -1 63 -5.5t52 -13.5zM520 127q92 0 134 81.5t42 262.5t-42 262.5t-134 81.5q-94 0 -136 -80.5t-42 -263.5q0 -184 42 -264t136 -80z" />
<glyph unicode="&#xf1;" horiz-adv-x="1096" d="M33 0v119l123 37v649l-123 24v119l379 47v-92q60 42 131.5 65t138.5 23q151 0 216 -78t65 -264v-493l122 -37v-119h-503v119l125 37v446q0 98 -45 141t-148 43q-22 0 -83 -6q-12 -1 -19 -2v-622l125 -37v-119h-504zM305 1143l-92 100q71 77 119 107t94 30q51 0 134 -34.5 t112 -34.5q26 0 54 16.5t63 52.5l92 -100q-71 -77 -119 -107t-94 -30q-48 0 -130 33.5t-114 33.5q-28 0 -56.5 -16t-62.5 -51z" />
<glyph unicode="&#xf2;" horiz-adv-x="1038" d="M520 131q93 0 134.5 84t41.5 270q0 189 -41.5 273t-134.5 84q-94 0 -136 -83.5t-42 -273.5q0 -189 42 -271.5t136 -82.5zM520 -25q-220 0 -339.5 132.5t-119.5 377.5q0 235 125 372.5t334 137.5q215 0 336 -134.5t121 -375.5q0 -233 -124 -371.5t-333 -138.5zM604 1090 l-270 266l252 61l190 -280z" />
<glyph unicode="&#xf3;" horiz-adv-x="1038" d="M520 131q93 0 134.5 84t41.5 270q0 189 -41.5 273t-134.5 84q-94 0 -136 -83.5t-42 -273.5q0 -189 42 -271.5t136 -82.5zM520 -25q-220 0 -339.5 132.5t-119.5 377.5q0 235 125 372.5t334 137.5q215 0 336 -134.5t121 -375.5q0 -233 -124 -371.5t-333 -138.5zM508 1090 l-174 47l190 280l252 -61z" />
<glyph unicode="&#xf4;" horiz-adv-x="1038" d="M520 131q93 0 134.5 84t41.5 270q0 189 -41.5 273t-134.5 84q-94 0 -136 -83.5t-42 -273.5q0 -189 42 -271.5t136 -82.5zM520 -25q-220 0 -339.5 132.5t-119.5 377.5q0 235 125 372.5t334 137.5q215 0 336 -134.5t121 -375.5q0 -233 -124 -371.5t-333 -138.5zM352 1104 l-147 51l221 277h186l221 -277l-151 -51l-166 160z" />
<glyph unicode="&#xf5;" horiz-adv-x="1038" d="M520 131q93 0 134.5 84t41.5 270q0 189 -41.5 273t-134.5 84q-94 0 -136 -83.5t-42 -273.5q0 -189 42 -271.5t136 -82.5zM520 -25q-220 0 -339.5 132.5t-119.5 377.5q0 235 125 372.5t334 137.5q215 0 336 -134.5t121 -375.5q0 -233 -124 -371.5t-333 -138.5zM276 1143 l-92 100q71 77 119 107t94 30q51 0 134 -34.5t112 -34.5q26 0 54 16.5t63 52.5l92 -100q-71 -77 -119 -107t-94 -30q-48 0 -130 33.5t-114 33.5q-28 0 -56.5 -16t-62.5 -51z" />
<glyph unicode="&#xf6;" horiz-adv-x="1038" d="M520 131q93 0 134.5 84t41.5 270q0 189 -41.5 273t-134.5 84q-94 0 -136 -83.5t-42 -273.5q0 -189 42 -271.5t136 -82.5zM520 -25q-220 0 -339.5 132.5t-119.5 377.5q0 235 125 372.5t334 137.5q215 0 336 -134.5t121 -375.5q0 -233 -124 -371.5t-333 -138.5zM471 1255 q0 -63 -27 -94t-82 -31t-81.5 31t-26.5 94q0 64 26.5 94.5t81.5 30.5t82 -30.5t27 -94.5zM780 1255q0 -63 -27 -94t-81 -31q-55 0 -82 31t-27 94q0 64 27 94.5t82 30.5q54 0 81 -30.5t27 -94.5z" />
<glyph unicode="&#xf7;" horiz-adv-x="1706" d="M854 369q62 0 107 -45t45 -107q0 -61 -45 -105t-107 -44q-63 0 -107.5 43t-44.5 106t44.5 107.5t107.5 44.5zM254 711h1198v-199h-1198v199zM854 1155q62 0 107 -44.5t45 -106.5q0 -63 -44.5 -107.5t-107.5 -44.5t-107.5 44.5t-44.5 107.5t44.5 107t107.5 44z" />
<glyph unicode="&#xf8;" horiz-adv-x="1038" d="M696 625l-307 -437q20 -31 55.5 -48t77.5 -17q97 0 140 86t43 280q0 32 -7 112q-1 15 -2 24zM340 351l307 431q-20 33 -53.5 50.5t-75.5 17.5q-96 0 -140 -85t-44 -269q0 -33 1.5 -68.5t4.5 -76.5zM281 33l-105 -148l-104 82l102 148q-55 61 -84 155.5t-29 214.5 q0 235 125 372.5t334 137.5q76 0 135 -13.5t105 -41.5l100 143l105 -77l-105 -150q59 -70 88 -161t29 -210q0 -237 -125.5 -373.5t-345.5 -136.5q-71 0 -127.5 14.5t-97.5 43.5z" />
<glyph unicode="&#xf9;" horiz-adv-x="1087" d="M686 805l-123 24v119l379 47v-827l123 -27v-116l-379 -50v88q-61 -42 -131.5 -65t-138.5 -23q-155 0 -218 71.5t-63 272.5v486l-123 24v119l379 47v-630q0 -99 45 -142t148 -43q23 0 49 2t53 6v617zM629 1090l-270 266l252 61l190 -280z" />
<glyph unicode="&#xfa;" horiz-adv-x="1087" d="M686 805l-123 24v119l379 47v-827l123 -27v-116l-379 -50v88q-61 -42 -131.5 -65t-138.5 -23q-155 0 -218 71.5t-63 272.5v486l-123 24v119l379 47v-630q0 -99 45 -142t148 -43q23 0 49 2t53 6v617zM533 1090l-174 47l190 280l252 -61z" />
<glyph unicode="&#xfb;" horiz-adv-x="1087" d="M686 805l-123 24v119l379 47v-827l123 -27v-116l-379 -50v88q-61 -42 -131.5 -65t-138.5 -23q-155 0 -218 71.5t-63 272.5v486l-123 24v119l379 47v-630q0 -99 45 -142t148 -43q23 0 49 2t53 6v617zM377 1104l-147 51l221 277h186l221 -277l-151 -51l-166 160z" />
<glyph unicode="&#xfc;" horiz-adv-x="1087" d="M686 805l-123 24v119l379 47v-827l123 -27v-116l-379 -50v88q-61 -42 -131.5 -65t-138.5 -23q-155 0 -218 71.5t-63 272.5v486l-123 24v119l379 47v-630q0 -99 45 -142t148 -43q23 0 49 2t53 6v617zM496 1255q0 -63 -27 -94t-82 -31t-81.5 31t-26.5 94q0 64 26.5 94.5 t81.5 30.5t82 -30.5t27 -94.5zM805 1255q0 -63 -27 -94t-81 -31q-55 0 -82 31t-27 94q0 64 27 94.5t82 30.5q54 0 81 -30.5t27 -94.5z" />
<glyph unicode="&#xfd;" horiz-adv-x="1006" d="M96 815l-104 37v119h500v-119l-119 -37l157 -530l172 530l-118 37v119h424v-119l-105 -37l-360 -956q-63 -165 -130.5 -223t-181.5 -58q-48 0 -92.5 11t-89.5 34v215h213l31 -82q17 0 27 8t18 29l70 182zM492 1090l-174 47l190 280l252 -61z" />
<glyph unicode="&#xfe;" horiz-adv-x="1096" d="M408 782v-622q4 -1 11 -1q44 -3 62 -3q134 0 205.5 82t71.5 237q0 158 -63.5 237t-190.5 79q-24 0 -80 -7q-11 -1 -16 -2zM408 -266l122 -37v-119h-501v119l123 37v1485l-123 22v119l379 43v-500q59 47 117.5 69.5t121.5 22.5q174 0 274.5 -120.5t100.5 -327.5 q0 -269 -128 -420.5t-355 -151.5q-33 0 -66 6t-65 17v-264z" />
<glyph unicode="&#xff;" horiz-adv-x="1006" d="M96 815l-104 37v119h500v-119l-119 -37l157 -530l172 530l-118 37v119h424v-119l-105 -37l-360 -956q-63 -165 -130.5 -223t-181.5 -58q-48 0 -92.5 11t-89.5 34v215h213l31 -82q17 0 27 8t18 29l70 182zM455 1255q0 -63 -27 -94t-82 -31t-81.5 31t-26.5 94 q0 64 26.5 94.5t81.5 30.5t82 -30.5t27 -94.5zM764 1255q0 -63 -27 -94t-81 -31q-55 0 -82 31t-27 94q0 64 27 94.5t82 30.5q54 0 81 -30.5t27 -94.5z" />
<glyph unicode="&#x131;" horiz-adv-x="565" d="M420 156l123 -37v-119h-502v119l123 37v649l-123 24v119l379 47v-839z" />
<glyph unicode="&#x152;" horiz-adv-x="1626" d="M766 170v901q-31 17 -64.5 25t-74.5 8q-146 0 -222.5 -124t-76.5 -359q0 -238 76 -361t225 -123q38 0 71.5 8t65.5 25zM795 0q-45 -12 -90.5 -18.5t-92.5 -6.5q-267 0 -420 164t-153 451q0 308 161 493t429 185q42 0 86.5 -6.5t95.5 -20.5h756v-297h-209l-68 152h-254 v-383h209l51 125h174v-396h-174l-51 123h-209v-418h271l73 170h207v-317h-792z" />
<glyph unicode="&#x153;" horiz-adv-x="1575" d="M934 606l305 31v16q0 91 -34.5 137t-102.5 46q-81 0 -124.5 -54.5t-43.5 -154.5v-21zM518 131q93 0 134.5 84t41.5 270q0 189 -41.5 273t-134.5 84t-134.5 -83t-41.5 -274q0 -190 41 -272t135 -82zM801 92q-47 -53 -131 -85t-176 -32q-196 0 -314.5 136t-118.5 364 q0 243 123 381.5t336 138.5q93 0 169.5 -29.5t135.5 -88.5q67 61 135 89.5t148 28.5q198 0 297.5 -115.5t99.5 -344.5q0 -28 -0.5 -42.5t-1.5 -25.5h-567q6 -150 83.5 -217.5t244.5 -67.5q50 0 100.5 4.5t103.5 14.5v-150q-99 -39 -184.5 -57.5t-167.5 -18.5 q-100 0 -182 30.5t-133 86.5z" />
<glyph unicode="&#x178;" horiz-adv-x="1139" d="M295 0v119l151 37v354l-331 575l-105 39v117h510v-117l-104 -39l200 -389l199 389l-102 39v117h434v-117l-105 -39l-325 -544v-385l151 -37v-119h-573zM520 1527q0 -63 -27 -94t-82 -31t-81.5 31t-26.5 94q0 64 26.5 94.5t81.5 30.5t82 -30.5t27 -94.5zM829 1527 q0 -63 -27 -94t-81 -31q-55 0 -82 31t-27 94q0 64 27 94.5t82 30.5q54 0 81 -30.5t27 -94.5z" />
<glyph unicode="&#x2c6;" horiz-adv-x="1024" d="M344 1104l-147 51l221 277h186l221 -277l-151 -51l-166 160z" />
<glyph unicode="&#x2dc;" horiz-adv-x="1024" d="M268 1143l-92 100q71 77 119 107t94 30q51 0 134 -34.5t112 -34.5q26 0 54 16.5t63 52.5l92 -100q-71 -77 -119 -107t-94 -30q-48 0 -130 33.5t-114 33.5q-28 0 -56.5 -16t-62.5 -51z" />
<glyph unicode="&#x2000;" horiz-adv-x="926" />
<glyph unicode="&#x2001;" horiz-adv-x="1853" />
<glyph unicode="&#x2002;" horiz-adv-x="926" />
<glyph unicode="&#x2003;" horiz-adv-x="1853" />
<glyph unicode="&#x2004;" horiz-adv-x="617" />
<glyph unicode="&#x2005;" horiz-adv-x="463" />
<glyph unicode="&#x2006;" horiz-adv-x="308" />
<glyph unicode="&#x2007;" horiz-adv-x="308" />
<glyph unicode="&#x2008;" horiz-adv-x="231" />
<glyph unicode="&#x2009;" horiz-adv-x="370" />
<glyph unicode="&#x200a;" horiz-adv-x="102" />
<glyph unicode="&#x2010;" horiz-adv-x="410" d="M25 410v194h362v-194h-362z" />
<glyph unicode="&#x2011;" horiz-adv-x="410" d="M25 410v194h362v-194h-362z" />
<glyph unicode="&#x2012;" horiz-adv-x="410" d="M25 410v194h362v-194h-362z" />
<glyph unicode="&#x2013;" horiz-adv-x="1024" d="M0 434v148h1024v-148h-1024z" />
<glyph unicode="&#x2014;" horiz-adv-x="2048" d="M-14 434v148h2076v-148h-2076z" />
<glyph unicode="&#x2018;" horiz-adv-x="473" d="M256 1047q64 -7 96.5 -41.5t32.5 -96.5q0 -68 -39.5 -103.5t-116.5 -35.5q-79 0 -119 47t-40 139q0 101 54.5 181t156.5 129l67 -109q-43 -18 -67.5 -45t-24.5 -57v-8z" />
<glyph unicode="&#x2019;" horiz-adv-x="473" d="M203 991q-64 5 -96.5 39t-32.5 96q0 69 39.5 104.5t115.5 35.5q80 0 120 -47t40 -140q0 -101 -55 -181.5t-156 -127.5l-67 109q42 17 67 45.5t25 58.5v8z" />
<glyph unicode="&#x201a;" horiz-adv-x="473" d="M203 -20q-65 6 -97 39.5t-32 95.5q0 68 39.5 103.5t115.5 35.5q80 0 120 -47t40 -139q0 -100 -55 -180.5t-156 -129.5l-67 109q42 18 67 46t25 58v9z" />
<glyph unicode="&#x201c;" horiz-adv-x="858" d="M637 1047q64 -7 96.5 -41.5t32.5 -96.5q0 -68 -40 -103.5t-116 -35.5q-79 0 -119 47t-40 139q0 102 53.5 181.5t154.5 128.5l70 -109q-43 -18 -67.5 -45t-24.5 -57v-8zM256 1047q64 -7 96.5 -41.5t32.5 -96.5q0 -68 -39.5 -103.5t-116.5 -35.5q-79 0 -119 47t-40 139 q0 101 54.5 181t156.5 129l67 -109q-43 -18 -67.5 -45t-24.5 -57v-8z" />
<glyph unicode="&#x201d;" horiz-adv-x="858" d="M583 991q-63 5 -96.5 39.5t-33.5 95.5q0 68 40.5 104t116.5 36q80 0 120 -47t40 -140q0 -101 -55 -181.5t-156 -127.5l-67 109q42 17 67 45.5t25 58.5zM203 991q-64 5 -96.5 39t-32.5 96q0 69 39.5 104.5t115.5 35.5q80 0 120 -47t40 -140q0 -101 -55 -181.5t-156 -127.5 l-67 109q42 17 67 45.5t25 58.5v8z" />
<glyph unicode="&#x201e;" horiz-adv-x="858" d="M588 -20q-65 6 -98 40t-33 95q0 67 40.5 103t116.5 36q80 0 120 -47t40 -139q0 -100 -55 -180.5t-156 -129.5l-67 109q42 18 67 46t25 58v9zM203 -20q-65 6 -97 39.5t-32 95.5q0 68 39.5 103.5t115.5 35.5q80 0 120 -47t40 -139q0 -100 -55 -180.5t-156 -129.5l-67 109 q42 18 67 46t25 58v9z" />
<glyph unicode="&#x2022;" horiz-adv-x="1208" d="M307 762q0 123 87 209t210 86q122 0 208.5 -86.5t86.5 -208.5t-87.5 -209.5t-209.5 -87.5q-123 0 -209 87t-86 210z" />
<glyph unicode="&#x2026;" horiz-adv-x="2048" d="M342 -23q-78 0 -118 38.5t-40 111.5t40 111t118 38q76 0 115.5 -37.5t39.5 -111.5t-39.5 -112t-115.5 -38zM1024 -23q-78 0 -118 38.5t-40 111.5t40 111t118 38q76 0 115.5 -37.5t39.5 -111.5t-39.5 -112t-115.5 -38zM1708 -23q-78 0 -118 38.5t-40 111.5t40 111t118 38 q76 0 115.5 -37.5t39.5 -111.5t-39.5 -112t-115.5 -38z" />
<glyph unicode="&#x202f;" horiz-adv-x="370" />
<glyph unicode="&#x2039;" horiz-adv-x="487" d="M399 848l-112 -344l112 -344h-198l-127 344l127 344h198z" />
<glyph unicode="&#x203a;" horiz-adv-x="487" d="M88 848h199l127 -344l-127 -344h-199l113 344z" />
<glyph unicode="&#x205f;" horiz-adv-x="463" />
<glyph unicode="&#x2122;" horiz-adv-x="1683" d="M758 1454h211l131 -369l129 369h198v-27l-27 -4q-19 -3 -27.5 -15t-8.5 -36v-379q0 -24 9 -36t28 -15l26 -4v-33h-253v33l30 4q18 3 27.5 16t9.5 35v365l-156 -455h-36l-166 463v-373q0 -22 9 -35t28 -16l34 -4v-33h-196v33l34 4q19 3 28 16t9 35v373q0 23 -9 35.5 t-27 15.5l-35 4v33zM238 1454h450l12 -192h-32q-8 79 -39.5 115t-91.5 36h-7v-420q1 -23 9.5 -35.5t25.5 -15.5l31 -4v-33h-266v33l30 4q17 3 26 16t9 35v420h-10q-59 0 -89 -36t-38 -115h-33z" />
<glyph unicode="&#x25fc;" horiz-adv-x="975" d="M0 975h975v-975h-975v975z" />
</font>
</defs>
</svg>
